<?xml version="1.0" encoding="UTF-8"?>
<svg width="512" height="512" viewBox="0 0 512 512" fill="none" xmlns="http://www.w3.org/2000/svg">
  <defs>
    <linearGradient id="bg" x1="0" y1="0" x2="512" y2="512" gradientUnits="userSpaceOnUse">
      <stop offset="0%" stop-color="#1e293b"/>
      <stop offset="100%" stop-color="#0f172a"/>
    </linearGradient>
    <linearGradient id="gold" x1="145" y1="104" x2="390" y2="408" gradientUnits="userSpaceOnUse">
      <stop offset="0%" stop-color="#fde68a"/>
      <stop offset="50%" stop-color="#f59e0b"/>
      <stop offset="100%" stop-color="#b45309"/>
    </linearGradient>
  </defs>
  <rect width="512" height="512" rx="108" fill="url(#bg)"/>
  <rect x="9" y="9" width="494" height="494" rx="101" fill="none" stroke="#f59e0b" stroke-width="3" opacity="0.30"/>
  <path fill-rule="evenodd" fill="url(#gold)" d="M 145,104 L 300,104 C 350,104 388,140 388,182 C 388,222 350,254 300,254 C 355,254 395,292 395,334 C 395,376 355,408 300,408 L 145,408 Z M 213,158 L 296,158 C 340,158 360,182 360,202 C 360,224 340,250 296,250 L 213,250 Z M 213,266 L 298,266 C 346,266 366,290 366,315 C 366,340 346,362 298,362 L 213,362 Z"/>
</svg>